<?xml version="1.0" standalone="no"?>
<!DOCTYPE svg PUBLIC "-//W3C//DTD SVG 20010904//EN"
 "http://www.w3.org/TR/2001/REC-SVG-20010904/DTD/svg10.dtd">
<svg version="1.0" xmlns="http://www.w3.org/2000/svg"
 width="1181.000000pt" height="591.000000pt" viewBox="0 0 1181.000000 591.000000"
 preserveAspectRatio="xMidYMid meet">
<metadata>
Created by potrace 1.12, written by Peter Selinger 2001-2015
</metadata>
<g transform="translate(0.000000,591.000000) scale(0.100000,-0.100000)"
fill="#000000" stroke="none">
<path d="M0 2955 l0 -2955 5905 0 5905 0 0 950 0 950 -4715 0 -4715 0 0 50 0
50 4715 0 4715 0 0 1955 0 1955 -5905 0 -5905 0 0 -2955z m3240 1060 c11 -13
-22 -15 -291 -15 -270 1 -302 2 -285 15 30 22 558 22 576 0z m2445 0 c34 -11
-72 -13 -692 -14 -645 -1 -733 1 -733 14 0 13 83 15 693 14 544 0 701 -3 732
-14z m-2365 -161 c22 -57 47 -54 -419 -54 l-430 0 26 40 27 40 393 0 393 0 10
-26z m2545 -4 c8 -16 15 -34 15 -40 0 -7 -262 -10 -845 -10 -465 0 -845 2
-845 5 0 3 7 21 14 40 l15 35 815 0 815 0 16 -30z m-2497 -212 l3 -48 -520 0
c-287 0 -521 3 -521 6 0 3 14 25 31 50 l30 44 487 -2 487 -3 3 -47z m2546 36
c3 -9 6 -31 6 -50 l0 -34 -900 0 c-495 0 -900 1 -900 3 0 2 7 24 16 50 l16 47
878 0 c791 0 878 -2 884 -16z m-3096 -230 c-18 -26 -38 -48 -43 -50 -6 -3
-142 -3 -303 -2 l-293 3 33 47 33 48 303 0 303 0 -33 -46z m576 15 c15 -75 36
-69 -258 -69 l-263 0 -7 31 c-15 75 -36 69 258 69 l264 0 6 -31z m1248 -19
l-16 -50 -289 0 c-227 0 -288 3 -283 13 2 6 10 29 17 50 l12 37 288 0 287 0
-16 -50z m1278 31 c0 -10 -3 -33 -6 -50 l-6 -31 -299 0 c-165 0 -299 2 -299 4
0 2 7 17 15 32 8 16 15 37 15 47 0 16 20 17 290 17 277 0 290 -1 290 -19z
m-3238 -226 l-37 -54 -302 -1 c-167 0 -303 3 -303 6 0 4 16 28 36 55 l36 49
303 0 304 0 -37 -55z m738 38 c0 -10 3 -35 6 -55 l7 -38 -267 0 -266 0 -4 23
c-3 12 -7 37 -10 55 l-5 32 269 0 c250 0 270 -1 270 -17z m1170 9 c0 -5 -7
-29 -16 -55 l-16 -47 -288 0 -288 0 21 55 20 55 283 0 c156 0 284 -4 284 -8z
m1280 1 c0 -5 -16 -29 -35 -55 l-35 -48 -590 0 c-325 0 -590 3 -590 7 0 4 21
29 47 55 l47 48 578 0 c318 0 578 -3 578 -7z m-3290 -189 c0 -3 -18 -32 -40
-65 l-41 -59 -304 0 c-168 0 -305 2 -305 5 0 4 19 33 42 65 l42 60 303 0 c167
0 303 -2 303 -6z m865 -6 c2 -7 6 -37 10 -65 l6 -53 -265 0 c-297 0 -268 -9
-281 83 l-6 47 266 0 c204 0 267 -3 270 -12z m2235 3 c0 -15 -138 -71 -238
-96 l-97 -25 -714 0 -713 0 5 28 c3 15 13 44 21 64 l16 38 860 0 c478 0 860
-4 860 -9z m2658 -108 c85 -54 28 -159 -81 -150 -72 6 -114 54 -95 109 22 61
111 83 176 41z m-1650 -36 c168 -49 262 -156 262 -298 0 -95 -23 -154 -87
-217 -81 -82 -192 -122 -333 -122 l-70 0 0 100 0 100 63 0 c71 0 135 25 161
61 22 32 21 117 -2 145 -30 38 -79 55 -173 61 l-89 6 0 -237 0 -236 -120 0
-120 0 0 331 0 331 228 -5 c162 -3 242 -9 280 -20z m-4238 -43 c0 -4 -20 -35
-46 -70 l-45 -64 -310 0 c-245 0 -309 3 -303 13 4 6 27 38 51 70 l44 57 305 0
c167 0 304 -3 304 -6z m1025 -36 c3 -24 8 -55 11 -70 l6 -28 -266 0 c-145 0
-267 4 -270 8 -2 4 -8 36 -12 70 l-7 62 266 0 265 0 7 -42z m995 40 c0 -2 -11
-32 -24 -68 l-24 -65 -286 -3 c-157 -1 -286 0 -286 2 0 2 9 34 20 70 l21 66
289 0 c160 0 290 -1 290 -2z m789 -65 l60 -68 -342 -3 -341 -2 -63 62 c-35 34
-63 66 -63 70 0 4 155 8 344 8 l344 0 61 -67z m2198 -64 c102 -39 173 -132
173 -228 l0 -31 -169 0 c-163 0 -170 1 -176 21 -4 11 -4 31 -1 45 6 22 12 24
61 24 59 0 68 10 33 34 -57 40 -127 1 -135 -75 -4 -39 -1 -50 23 -78 23 -28
32 -32 63 -29 20 3 43 8 52 12 11 5 35 -11 79 -52 l64 -59 -25 -16 c-44 -29
-147 -50 -214 -42 -187 20 -305 158 -261 307 22 77 103 150 196 179 54 16 177
10 237 -12z m1486 -13 c107 -52 127 -102 127 -311 0 -142 -1 -154 -26 -203
-49 -98 -150 -156 -274 -156 -41 -1 -87 2 -102 7 -28 7 -28 9 -28 86 l0 79 60
-5 c37 -4 71 -1 90 7 50 21 60 53 60 195 0 112 -2 127 -20 145 -26 26 -70 26
-104 -1 -52 -41 -20 -102 54 -102 l40 0 0 -82 0 -82 -31 -7 c-170 -34 -336 95
-316 245 12 88 81 166 180 201 80 28 215 21 290 -16z m664 6 c53 -28 98 -83
112 -138 6 -23 11 -106 11 -184 l0 -141 -112 3 -113 3 -5 150 c-5 150 -5 150
-29 153 -44 7 -51 -19 -51 -170 l0 -138 -110 0 -110 0 0 157 c0 138 2 162 21
200 24 50 77 97 134 118 60 22 198 15 252 -13z m-1522 -82 l0 -95 -27 -3 c-30
-4 -58 -35 -58 -66 0 -73 -70 -172 -142 -201 -24 -9 -78 -19 -120 -22 l-78 -6
0 95 0 95 42 9 c50 11 65 33 73 117 12 114 109 179 260 174 l50 -2 0 -95z
m295 -140 l0 -241 -112 3 -113 3 -3 238 -2 237 115 0 115 0 0 -240z m-4875
108 c3 -29 9 -61 11 -70 5 -17 -13 -18 -270 -18 l-276 0 0 33 c0 50 -11 52
-37 7 l-24 -40 -655 0 c-361 0 -654 3 -652 8 2 4 23 35 47 70 l45 62 902 0
902 0 7 -52z m892 40 c-2 -7 -13 -39 -23 -70 l-18 -58 -289 0 c-227 0 -288 3
-284 13 2 6 13 38 23 70 l18 57 289 0 c227 0 288 -3 284 -12z m1042 -55 l61
-68 -332 -3 -333 -2 -70 70 -70 70 342 0 341 0 61 -67z m-2594 -160 c-16 -21
-44 -57 -62 -80 l-34 -43 -650 0 c-357 0 -649 2 -649 6 0 3 25 39 55 80 l55
74 656 0 656 0 -27 -37z m691 -38 c7 -38 10 -73 7 -77 -2 -5 -121 -8 -264 -8
l-259 0 -9 23 c-5 13 -12 49 -16 80 l-7 57 268 -2 269 -3 11 -70z m793 58 c0
-10 -10 -45 -22 -78 l-22 -60 -275 -3 c-151 -1 -280 0 -287 2 -9 4 -5 25 13
80 l26 76 284 0 c264 0 284 -1 283 -17z m1285 -57 c36 -40 66 -76 66 -80 0 -3
-143 -6 -318 -6 l-317 0 -80 80 -80 80 332 0 331 0 66 -74z m-2914 -131 c-11
-13 -95 -15 -646 -15 -349 0 -634 4 -634 8 0 5 3 12 7 15 3 4 294 7 646 7 567
0 638 -2 627 -15z m858 -2 c3 -10 -55 -13 -267 -13 -236 0 -271 2 -271 15 0
13 34 15 267 13 202 -2 267 -6 271 -15z m712 2 c0 -13 -39 -15 -290 -15 -159
0 -290 4 -290 8 0 5 3 12 7 15 3 4 134 7 290 7 245 0 283 -2 283 -15z m1460 0
c11 -14 -23 -15 -310 -13 -248 2 -324 6 -328 16 -3 9 64 12 311 12 269 0 316
-2 327 -15z m1405 -589 c36 -15 55 -42 55 -75 0 -17 -6 -21 -31 -21 -18 0 -37
7 -44 17 -7 9 -15 12 -18 6 -3 -5 8 -30 25 -56 25 -39 36 -47 60 -47 30 0 30
-1 25 -36 -5 -28 -1 -44 14 -66 l21 -29 -53 0 c-30 1 -70 -2 -90 -5 -31 -5
-42 -1 -70 24 -28 25 -34 37 -34 70 0 25 7 48 19 60 14 16 15 25 7 41 -6 11
-11 28 -11 39 0 33 48 82 88 91 1 1 18 -5 37 -13z m436 4 c5 0 9 -20 9 -45 0
-32 -4 -45 -14 -45 -18 0 -27 -23 -15 -41 5 -8 14 -31 19 -52 23 -81 -58 -160
-134 -131 -11 4 -16 19 -16 50 0 37 3 44 19 44 29 0 34 16 16 49 -20 39 -19
100 1 130 19 26 72 53 92 46 8 -3 18 -5 23 -5z m-4026 -26 c132 -69 78 -284
-71 -284 l-44 0 0 45 c0 40 2 45 23 45 38 0 67 27 67 64 0 40 -12 52 -62 61
l-38 7 0 -111 0 -111 -50 0 -50 0 0 148 c0 82 3 152 8 156 15 16 176 1 217
-20z m1650 15 c171 -46 138 -299 -39 -299 -36 0 -36 0 -36 45 0 40 2 45 23 45
35 0 67 27 67 59 0 38 -19 59 -62 66 l-38 7 0 -111 0 -111 -50 0 -50 0 0 155
0 155 73 0 c39 0 90 -5 112 -11z m915 -144 l0 -155 -45 0 -45 0 0 148 c0 82 3
152 7 155 3 4 24 7 45 7 l38 0 0 -155z m1858 108 c2 -29 8 -43 18 -43 10 0 14
-12 14 -45 0 -33 -4 -45 -15 -45 -22 0 -18 -27 5 -40 15 -8 20 -21 20 -50 0
-21 -4 -41 -9 -45 -18 -10 -87 26 -104 54 -13 23 -17 54 -17 146 l0 116 43 -3
c42 -3 42 -3 45 -45z m502 3 c0 -35 -4 -45 -20 -49 -11 -3 -20 -12 -20 -20 0
-8 9 -17 20 -20 16 -4 20 -14 20 -47 0 -33 -4 -43 -20 -47 -16 -4 -20 -14 -20
-44 l0 -39 -45 0 -45 0 0 104 c0 56 5 118 11 135 13 36 61 71 97 71 19 0 22
-5 22 -44z m630 -1 c0 -38 3 -45 20 -45 17 0 20 -7 20 -45 0 -38 -3 -45 -20
-45 -22 0 -23 -1 -14 -24 3 -9 12 -16 20 -16 10 0 14 -14 14 -50 0 -50 0 -50
-27 -44 -78 19 -94 46 -100 178 -3 57 -3 111 0 120 4 11 19 16 47 16 l40 0 0
-45z m-5279 -52 c29 -17 59 -67 59 -97 0 -13 -13 -16 -71 -16 -61 0 -70 2 -67
17 2 9 14 20 28 24 22 5 23 7 7 14 -22 9 -47 -11 -47 -39 0 -32 15 -50 36 -42
19 7 64 -28 64 -50 0 -7 -16 -18 -35 -24 -44 -14 -92 -1 -126 36 -34 37 -34
112 1 149 44 47 100 58 151 28z m339 -98 l0 -115 -45 0 -45 0 0 108 c0 60 3
112 7 115 3 4 24 7 45 7 l38 0 0 -115z m217 95 c37 -22 53 -67 53 -148 0 -109
-69 -186 -148 -165 -18 4 -22 12 -22 45 0 35 2 39 21 33 38 -12 59 20 59 90 0
62 -12 88 -36 78 -21 -8 -17 -44 6 -50 16 -4 20 -14 20 -44 0 -39 0 -39 -38
-39 -86 0 -126 114 -65 183 37 41 100 48 150 17z m256 0 c32 -25 47 -75 47
-152 l0 -58 -45 0 -45 0 0 70 c0 56 -3 70 -15 70 -12 0 -15 -14 -15 -70 l0
-70 -46 0 -46 0 3 86 c4 82 5 87 37 115 39 35 87 38 125 9z m893 -11 c24 -22
45 -76 37 -91 -2 -5 -33 -8 -69 -8 -57 0 -64 2 -64 20 0 13 7 20 20 20 11 0
20 5 20 11 0 6 -10 9 -22 7 -20 -3 -23 -9 -23 -43 0 -37 2 -40 28 -40 25 0 66
-35 67 -57 0 -13 -65 -28 -97 -22 -46 9 -93 64 -93 110 0 46 23 90 58 109 38
21 107 14 138 -16z m119 4 c13 -29 19 -29 33 2 9 20 19 25 47 25 19 0 35 -4
35 -10 0 -16 -92 -220 -100 -220 -7 0 -100 208 -100 223 0 5 17 7 38 5 27 -2
40 -9 47 -25z m284 14 c30 -15 58 -53 67 -89 l6 -28 -71 0 c-64 0 -71 2 -71
20 0 15 7 20 26 20 14 0 23 4 19 10 -12 20 -44 11 -51 -14 -10 -42 -1 -61 30
-61 17 0 35 -9 47 -24 26 -31 24 -37 -13 -50 -102 -36 -193 72 -143 169 27 53
100 75 154 47z m399 -7 c60 -37 71 -118 22 -174 -73 -83 -201 -36 -204 75 -2
93 101 148 182 99z m278 -11 c75 -70 39 -184 -64 -205 l-32 -6 0 51 c0 29 4
50 9 46 14 -8 41 24 34 41 -3 8 -15 14 -27 12 -20 -3 -21 -10 -26 -113 l-5
-110 -42 -3 -43 -3 0 116 c0 128 11 163 58 190 38 21 107 14 138 -16z m1206
-8 c26 -29 28 -38 28 -110 l0 -78 -67 -6 c-111 -9 -163 27 -163 111 0 54 12
77 53 103 47 30 112 21 149 -20z m316 -78 l3 -113 -46 0 -45 0 0 108 c0 60 3
112 7 116 4 4 23 6 43 4 l35 -3 3 -112z m564 78 c26 -29 28 -38 28 -111 l0
-80 -40 0 -40 0 0 53 c0 60 -18 94 -44 84 -26 -10 -17 -51 12 -55 19 -3 22
-10 22 -43 0 -47 -14 -56 -65 -39 -62 20 -96 112 -64 171 35 65 141 76 191 20z
m238 24 c25 -13 60 -60 60 -81 0 -3 -30 -4 -67 -3 -64 4 -68 3 -71 -19 -4 -29
23 -40 47 -18 24 22 91 22 91 0 0 -44 -66 -104 -115 -104 -32 0 -86 33 -100
61 -18 33 -19 92 -4 120 14 28 69 59 102 59 15 0 41 -7 57 -15z m338 -102 l3
-113 -46 0 -45 0 0 116 0 115 43 -3 42 -3 3 -112z m227 87 c82 -77 29 -206
-82 -204 -40 1 -51 6 -80 37 -76 83 -16 205 95 194 26 -3 53 -13 67 -27z m224
16 c38 -20 51 -55 51 -141 l0 -75 -45 0 -45 0 0 71 c0 52 -3 70 -12 67 -8 -3
-14 -29 -16 -71 l-3 -67 -39 0 -40 0 0 81 c0 90 8 112 48 133 35 19 66 20 101
2z m-5669 -40 c0 -28 -5 -46 -14 -49 -7 -3 -16 -21 -20 -41 -10 -50 -43 -85
-88 -93 l-38 -6 0 51 c0 41 3 51 20 55 15 4 20 14 20 40 0 48 38 87 85 87 35
0 35 0 35 -44z m4270 -1 c0 -32 -4 -45 -14 -45 -8 0 -18 -14 -21 -32 -12 -55
-33 -85 -66 -97 -60 -21 -69 -16 -69 35 0 37 4 47 19 51 14 3 22 17 26 46 10
53 44 87 90 87 35 0 35 0 35 -45z"/>
</g>
</svg>
